<?xml version="1.0" standalone="no"?>
<!DOCTYPE svg PUBLIC "-//W3C//DTD SVG 20010904//EN"
 "http://www.w3.org/TR/2001/REC-SVG-20010904/DTD/svg10.dtd">
<svg version="1.0" xmlns="http://www.w3.org/2000/svg"
 width="96.000000pt" height="96.000000pt" viewBox="0 0 96.000000 96.000000"
 preserveAspectRatio="xMidYMid meet">

<g transform="translate(0.000000,96.000000) scale(0.100000,-0.100000)"
fill="#000000" stroke="none">
<path d="M393 940 c-61 -37 -87 -137 -49 -195 74 -113 242 -71 253 64 10 110
-112 188 -204 131z"/>
<path d="M774 841 c-21 -16 -61 -52 -89 -81 -27 -28 -164 -146 -303 -262 -197
-163 -252 -214 -252 -232 0 -14 -16 -40 -40 -64 -32 -31 -40 -47 -40 -75 0
-50 18 -84 57 -108 95 -59 212 41 169 144 -8 21 -29 45 -46 55 -39 22 -38 44
6 77 l35 27 58 -26 c73 -33 156 -43 216 -26 l46 13 34 -39 c25 -27 33 -45 29
-59 -15 -50 -15 -94 0 -124 47 -89 180 -75 215 24 12 35 11 45 -2 77 -18 43
-68 78 -112 78 -23 1 -40 12 -73 50 l-43 50 22 57 c18 46 23 82 25 171 l3 113
37 45 c20 25 53 56 74 70 32 22 41 23 63 13 38 -17 42 -43 16 -89 -24 -42 -17
-69 15 -57 22 9 56 67 56 95 0 56 -56 112 -113 112 -13 0 -42 -13 -63 -29z"/>
<path d="M201 539 c-39 -15 -181 -141 -187 -165 -13 -50 46 -91 90 -64 44 28
215 175 212 184 -3 13 -47 43 -71 49 -11 3 -31 1 -44 -4z"/>
</g>
</svg>
