<?xml version="1.0" standalone="no"?>
<!DOCTYPE svg PUBLIC "-//W3C//DTD SVG 20010904//EN"
 "http://www.w3.org/TR/2001/REC-SVG-20010904/DTD/svg10.dtd">
<svg version="1.0" xmlns="http://www.w3.org/2000/svg"
 width="96.000000pt" height="96.000000pt" viewBox="0 0 96.000000 96.000000"
 preserveAspectRatio="xMidYMid meet">

<g transform="translate(0.000000,96.000000) scale(0.100000,-0.100000)"
fill="#000000" stroke="none">
<path d="M291 883 c31 -60 42 -98 50 -163 19 -145 12 -139 76 -70 31 34 76 72
99 86 l44 26 -30 43 c-58 84 -172 155 -249 155 l-29 0 39 -77z"/>
<path d="M102 895 c-17 -14 -44 -52 -59 -83 -26 -52 -28 -67 -28 -167 0 -103
2 -114 32 -178 38 -80 118 -168 180 -198 24 -12 46 -20 48 -18 10 11 5 186 -8
264 -8 50 -20 127 -26 172 -12 95 -41 169 -80 207 l-28 27 -31 -26z"/>
<path d="M620 711 c-156 -48 -271 -215 -273 -396 -2 -104 21 -170 79 -232 l44
-48 25 30 c65 76 90 159 115 374 12 104 37 185 75 243 l25 38 -32 -1 c-18 0
-44 -4 -58 -8z"/>
<path d="M792 646 c-45 -51 -70 -131 -82 -258 -16 -171 -41 -258 -100 -345
l-29 -43 34 0 c131 0 282 139 325 298 18 69 14 181 -10 243 -19 52 -82 139
-100 139 -4 0 -21 -15 -38 -34z"/>
</g>
</svg>
