<svg id="Capa_1" enable-background="new 0 0 512.052 512.052" height="512" viewBox="0 0 512.052 512.052" width="512" xmlns="http://www.w3.org/2000/svg"><g id="XMLID_947_"><g id="XMLID_948_" fill="#c68a65"><path id="XMLID_950_" d="m273.127 238.947c0 62.774-50.888 113.662-113.662 113.662-62.774 0-113.662 50.888-113.662 113.662 53.588 53.588 147.917 46.14 210.691-16.634 62.774-62.773 70.221-157.103 16.633-210.69z"/><path id="XMLID_952_" d="m159.465 352.609c62.774 0 113.663-50.888 113.663-113.662-53.588-53.588-147.918-46.141-210.692 16.633-62.774 62.774-70.221 157.104-16.634 210.691 0-62.774 50.889-113.662 113.663-113.662z"/></g><g id="XMLID_955_" fill="#d1a184"><path id="XMLID_957_" d="m438.911 304.496c-60.635-16.247-96.619-78.572-80.371-139.207 16.247-60.635-19.736-122.96-80.371-139.208-65.631 37.892-82.852 130.935-38.464 207.817 44.387 76.883 133.575 108.49 199.206 70.598z"/><path id="XMLID_956_" d="m358.54 165.288c-16.247 60.635 19.736 122.961 80.371 139.208 65.631-37.892 82.852-130.935 38.464-207.817-44.387-76.882-133.575-108.49-199.206-70.598 60.635 16.247 96.618 78.572 80.371 139.207z"/></g><g id="XMLID_2178_"><path id="XMLID_2181_" d="m486.036 91.679c-22.657-39.243-57.091-68.636-96.958-82.765-40.428-14.327-81.593-11.307-115.91 8.507-34.317 19.813-57.516 53.952-65.322 96.127-5.003 27.03-3.267 55.294 4.775 82.545-22.803-4.628-47.168-3.812-71.517 2.548-31.766 8.299-61.415 25.543-85.74 49.868-32.042 32.042-51.522 72.91-54.85 115.075-3.376 42.759 10.196 81.739 38.217 109.759 23.231 23.231 53.866 36.535 88.594 38.475 2.81.157 5.629.235 8.463.234 30.644-.001 62.466-9.12 90.492-26.063 4.727-2.857 6.242-9.005 3.384-13.731-2.856-4.727-9.004-6.24-13.731-3.384-54.888 33.182-120.004 30.206-160.039-6.798 2.21-55.221 47.817-99.466 103.571-99.466 27.139 0 52.9-8.627 74.496-24.949 16.693-12.616 30.006-29.487 38.502-48.49 7.739 6.665 15.962 12.626 24.583 17.82 5.672 33.169-1.989 70.112-21.315 102.085-2.857 4.726-1.341 10.874 3.385 13.731 1.618.978 3.402 1.443 5.164 1.443 3.385 0 6.688-1.72 8.567-4.828 19.07-31.548 28.031-67.589 25.634-101.477 3.137 1.333 6.309 2.581 9.52 3.719 16.806 5.956 33.739 8.914 50.255 8.914 23.214 0 45.604-5.844 65.655-17.421 34.318-19.813 57.516-53.952 65.322-96.127 7.699-41.591-.54-86.108-23.197-125.351zm-326.571 250.93c-59.597 0-109.479 42.377-121.104 98.58-32.772-50.963-21.051-126.341 31.146-178.538 42.63-42.631 101.582-59.541 151.414-43.808 2.971 6.806 6.342 13.505 10.123 20.055 7.442 12.891 16.163 24.71 25.921 35.283-14.689 40.559-53.973 68.428-97.5 68.428zm175.217-39.797c-35.384-12.54-66.039-38.79-86.318-73.914-40.73-70.548-26.54-155.605 31.228-191.989 52.778 16.421 83.72 71.931 69.288 125.791-8.549 31.906-4.162 65.231 12.354 93.837 12.251 21.22 30.092 37.953 51.51 48.671-24.304 7.81-51.305 7.086-78.062-2.396zm102.804-9.144c-24.964-7.755-45.785-24.362-58.93-47.13-13.845-23.98-17.523-51.916-10.356-78.661 15.425-57.566-12.597-116.717-63.876-142.492 57.707-18.464 127.484 12.366 164.393 76.294 40.729 70.548 26.539 155.607-31.231 191.989z"/><path id="XMLID_2184_" d="m256.497 439.637c-2.63 0-5.21 1.07-7.07 2.93-1.87 1.86-2.93 4.44-2.93 7.07s1.06 5.21 2.93 7.07c1.86 1.86 4.43 2.93 7.07 2.93 2.63 0 5.21-1.07 7.07-2.93s2.93-4.44 2.93-7.07-1.07-5.21-2.93-7.07-4.44-2.93-7.07-2.93z"/></g></g></svg>