<?xml version="1.0" standalone="no"?>
<!DOCTYPE svg PUBLIC "-//W3C//DTD SVG 20010904//EN"
 "http://www.w3.org/TR/2001/REC-SVG-20010904/DTD/svg10.dtd">
<svg version="1.0" xmlns="http://www.w3.org/2000/svg"
 width="96.000000pt" height="96.000000pt" viewBox="0 0 96.000000 96.000000"
 preserveAspectRatio="xMidYMid meet">

<g transform="translate(0.000000,96.000000) scale(0.100000,-0.100000)"
fill="#000000" stroke="none">
<path d="M100 627 l0 -223 -50 -124 c-27 -69 -50 -135 -50 -147 l0 -23 480 0
480 0 0 23 c0 12 -23 78 -50 147 l-50 124 0 223 0 223 -380 0 -380 0 0 -223z
m700 -17 l0 -190 -320 0 -320 0 0 190 0 190 320 0 320 0 0 -190z m-240 -396
c6 -14 10 -27 10 -30 0 -2 -40 -4 -90 -4 -49 0 -90 2 -90 4 0 3 4 16 10 30 9
25 14 26 80 26 66 0 71 -1 80 -26z"/>
</g>
</svg>
