<?xml version="1.0" standalone="no"?>
<!DOCTYPE svg PUBLIC "-//W3C//DTD SVG 20010904//EN"
 "http://www.w3.org/TR/2001/REC-SVG-20010904/DTD/svg10.dtd">
<svg version="1.0" xmlns="http://www.w3.org/2000/svg"
 width="96.000000pt" height="96.000000pt" viewBox="0 0 96.000000 96.000000"
 preserveAspectRatio="xMidYMid meet">

<g transform="translate(0.000000,96.000000) scale(0.100000,-0.100000)"
fill="#000000" stroke="none">
<path d="M340 931 c0 -20 6 -30 20 -34 14 -3 20 -14 20 -31 l0 -26 100 0 100
0 0 26 c0 17 6 28 20 31 14 4 20 14 20 34 l0 29 -140 0 -140 0 0 -29z"/>
<path d="M334 723 c-69 -154 -64 -118 -64 -434 l0 -289 210 0 210 0 -1 293 0
292 -43 95 -44 95 -121 3 -121 3 -26 -58z"/>
</g>
</svg>
