<?xml version="1.0" encoding="iso-8859-1"?>
<!-- Generator: Adobe Illustrator 19.0.0, SVG Export Plug-In . SVG Version: 6.00 Build 0)  -->
<svg version="1.1" id="Capa_1" xmlns="http://www.w3.org/2000/svg" xmlns:xlink="http://www.w3.org/1999/xlink" x="0px" y="0px"
	 viewBox="0 0 512 512" style="enable-background:new 0 0 512 512;" xml:space="preserve">
<g>
	<g>
		<path d="M373.364,165.003L331,101.459V91H181v10.459l-42.363,63.545C127.094,182.304,121,202.445,121,223.246v8.952
			C144.762,218.931,169.007,211,196,211c36.379,0,65.627,15.969,67.218,16.855c0,0,0.042,0.009,0.062,0.02
			C263.515,228.007,287.421,241,316,241c31.034,0,49.216-11.155,74.451-25.247C389.16,197.644,383.506,180.205,373.364,165.003z"/>
	</g>
</g>
<g>
	<g>
		<path d="M316,271c-36.379,0-65.627-15.969-67.218-16.855c0,0-0.042-0.009-0.062-0.02C248.485,253.993,224.579,241,196,241
			c-31.045,0-49.374,11.243-75,25.554V467c0,24.814,20.186,45,45,45h180c24.814,0,45-20.186,45-45V249.802
			C367.238,263.069,342.993,271,316,271z"/>
	</g>
</g>
<g>
	<g>
		<path d="M331,0H181c-8.291,0-15,6.709-15,15v46h180V15C346,6.709,339.291,0,331,0z"/>
	</g>
</g>
<g>
</g>
<g>
</g>
<g>
</g>
<g>
</g>
<g>
</g>
<g>
</g>
<g>
</g>
<g>
</g>
<g>
</g>
<g>
</g>
<g>
</g>
<g>
</g>
<g>
</g>
<g>
</g>
<g>
</g>
</svg>
