<?xml version="1.0" standalone="no"?>
<!DOCTYPE svg PUBLIC "-//W3C//DTD SVG 20010904//EN"
 "http://www.w3.org/TR/2001/REC-SVG-20010904/DTD/svg10.dtd">
<svg version="1.0" xmlns="http://www.w3.org/2000/svg"
 width="96.000000pt" height="96.000000pt" viewBox="0 0 96.000000 96.000000"
 preserveAspectRatio="xMidYMid meet">

<g transform="translate(0.000000,96.000000) scale(0.100000,-0.100000)"
fill="#000000" stroke="none">
<path d="M377 950 c-105 -27 -216 -105 -276 -197 -39 -59 -71 -160 -71 -224
l0 -49 210 0 210 0 0 -95 0 -95 -72 0 c-81 0 -102 -8 -96 -36 3 -16 14 -19 86
-22 l82 -3 0 -103 c0 -108 10 -136 45 -122 12 4 15 26 15 115 l0 110 82 3 c72
3 83 6 86 22 6 28 -15 36 -95 36 l-73 0 0 95 0 95 211 0 212 0 -5 68 c-13 167
-128 320 -287 382 -64 25 -202 35 -264 20z m169 -51 c115 -21 221 -95 279
-193 26 -44 58 -153 49 -167 -7 -11 -781 -11 -788 0 -9 14 23 123 49 167 55
94 156 166 265 190 71 16 76 16 146 3z"/>
<path d="M47 303 c-4 -3 -7 -71 -7 -150 0 -119 3 -145 15 -149 25 -10 45 16
45 57 l0 39 75 0 75 0 0 -34 c0 -47 9 -66 31 -66 23 0 31 29 27 101 l-3 54
-102 3 -103 3 0 62 c0 61 -11 87 -35 87 -7 0 -15 -3 -18 -7z"/>
<path d="M872 298 c-7 -7 -12 -38 -12 -75 l0 -62 -102 -3 -103 -3 -3 -54 c-4
-72 4 -101 27 -101 22 0 31 19 31 66 l0 34 75 0 75 0 0 -39 c0 -42 20 -67 45
-57 23 8 18 299 -5 304 -9 1 -21 -3 -28 -10z"/>
</g>
</svg>
