<?xml version="1.0" standalone="no"?>
<!DOCTYPE svg PUBLIC "-//W3C//DTD SVG 20010904//EN"
 "http://www.w3.org/TR/2001/REC-SVG-20010904/DTD/svg10.dtd">
<svg version="1.0" xmlns="http://www.w3.org/2000/svg"
 width="96.000000pt" height="96.000000pt" viewBox="0 0 96.000000 96.000000"
 preserveAspectRatio="xMidYMid meet">

<g transform="translate(0.000000,96.000000) scale(0.100000,-0.100000)"
fill="#000000" stroke="none">
<path d="M310 878 c-65 -44 -86 -119 -54 -198 21 -51 64 -83 115 -83 49 0 84
23 109 73 67 132 -57 284 -170 208z"/>
<path d="M603 820 c-97 -59 -95 -225 3 -266 45 -19 84 -11 126 24 75 63 78
196 6 246 -31 22 -96 20 -135 -4z"/>
<path d="M64 711 c-60 -25 -81 -105 -46 -170 20 -37 72 -71 109 -71 33 0 81
46 89 85 17 92 -76 188 -152 156z"/>
<path d="M799 567 c-100 -66 -79 -212 30 -212 105 0 172 135 102 206 -37 36
-84 38 -132 6z"/>
<path d="M390 561 c-84 -27 -114 -57 -209 -210 -78 -126 -86 -161 -51 -219 24
-38 75 -72 111 -72 14 0 52 9 84 20 35 12 84 20 125 20 41 0 90 -8 125 -20 73
-25 102 -25 143 0 61 37 89 118 61 173 -26 49 -134 214 -158 240 -52 58 -164
90 -231 68z"/>
</g>
</svg>
