<?xml version="1.0" standalone="no"?>
<!DOCTYPE svg PUBLIC "-//W3C//DTD SVG 20010904//EN"
 "http://www.w3.org/TR/2001/REC-SVG-20010904/DTD/svg10.dtd">
<svg version="1.0" xmlns="http://www.w3.org/2000/svg"
 width="96.000000pt" height="96.000000pt" viewBox="0 0 96.000000 96.000000"
 preserveAspectRatio="xMidYMid meet">

<g transform="translate(0.000000,96.000000) scale(0.100000,-0.100000)"
fill="#000000" stroke="none">
<path d="M290 927 c0 -19 9 -60 20 -92 11 -32 20 -77 20 -100 0 -23 -9 -71
-20 -105 -11 -34 -20 -76 -20 -91 0 -26 4 -29 30 -29 24 0 30 4 30 23 0 12 9
51 20 85 25 81 25 153 0 227 -11 32 -20 71 -20 87 0 24 -4 28 -30 28 -27 0
-30 -3 -30 -33z"/>
<path d="M430 931 c0 -15 9 -57 20 -91 11 -34 20 -84 20 -110 0 -26 -9 -73
-20 -105 -11 -32 -20 -71 -20 -87 0 -24 4 -28 30 -28 25 0 30 4 30 23 0 13 9
50 20 82 25 74 25 156 0 237 -11 34 -20 73 -20 86 0 18 -6 22 -30 22 -26 0
-30 -3 -30 -29z"/>
<path d="M570 936 c0 -13 9 -53 20 -88 11 -34 20 -85 20 -113 0 -27 -9 -79
-20 -113 -29 -92 -27 -112 10 -112 22 0 30 5 30 18 0 10 9 48 21 85 25 79 22
163 -7 274 -18 68 -21 73 -46 73 -23 0 -28 -4 -28 -24z"/>
<path d="M87 403 c-9 -14 11 -111 33 -159 28 -64 80 -126 135 -161 35 -22 44
-34 45 -55 l0 -28 180 0 180 0 0 28 c1 21 11 33 46 56 87 55 157 172 165 276
l4 45 -392 3 c-215 1 -394 -1 -396 -5z"/>
</g>
</svg>
