<?xml version="1.0" encoding="iso-8859-1"?>
<!-- Generator: Adobe Illustrator 19.0.0, SVG Export Plug-In . SVG Version: 6.00 Build 0)  -->
<svg version="1.1" id="Capa_1" xmlns="http://www.w3.org/2000/svg" xmlns:xlink="http://www.w3.org/1999/xlink" x="0px" y="0px"
	 viewBox="0 0 512 512" style="enable-background:new 0 0 512 512;" xml:space="preserve">
<g>
	<g>
		<g>
			<path d="M458.667,234.667c-5.896,0-10.667,4.771-10.667,10.667V384h-96c-5.896,0-10.667,4.771-10.667,10.667v106.667
				c0,5.896,4.771,10.667,10.667,10.667c5.896,0,10.667-4.771,10.667-10.667v-96H448v96c0,5.896,4.771,10.667,10.667,10.667
				s10.667-4.771,10.667-10.667v-256C469.333,239.438,464.563,234.667,458.667,234.667z"/>
			<path d="M160,384H64V245.333c0-5.896-4.771-10.667-10.667-10.667c-5.896,0-10.667,4.771-10.667,10.667v256
				c0,5.896,4.771,10.667,10.667,10.667C59.229,512,64,507.229,64,501.333v-96h85.333v96c0,5.896,4.771,10.667,10.667,10.667
				s10.667-4.771,10.667-10.667V394.667C170.667,388.771,165.896,384,160,384z"/>
			<path d="M266.667,21.716V10.667C266.667,4.771,261.896,0,256,0s-10.667,4.771-10.667,10.667v11.049
				C121.695,25.695,0,98.531,0,234.667c0,5.896,4.771,10.667,10.667,10.667c5.896,0,10.667-4.771,10.667-10.667
				c0-23.125,32.563-42.667,71.104-42.667c38.563,0,71.125,19.542,71.125,42.667c0,5.896,4.771,10.667,10.667,10.667
				c5.896,0,10.667-4.771,10.667-10.667c0-20.941,26.773-38.784,60.438-41.997v105.997H138.667c-17.646,0-32,14.354-32,32
				c0,17.646,14.354,32,32,32h106.667v128H224c-5.896,0-10.667,4.771-10.667,10.667c0,5.896,4.771,10.667,10.667,10.667h64
				c5.896,0,10.667-4.771,10.667-10.667c0-5.896-4.771-10.667-10.667-10.667h-21.333v-128h106.667c17.646,0,32-14.354,32-32
				c0-17.646-14.354-32-32-32H266.667V192.669c33.664,3.214,60.438,21.056,60.438,41.997c0,5.896,4.771,10.667,10.667,10.667
				c5.896,0,10.667-4.771,10.667-10.667C348.438,211.542,381,192,419.563,192c38.542,0,71.104,19.542,71.104,42.667
				c0,5.896,4.771,10.667,10.667,10.667c5.896,0,10.667-4.771,10.667-10.667C512,98.531,390.305,25.695,266.667,21.716z"/>
		</g>
	</g>
</g>
<g>
</g>
<g>
</g>
<g>
</g>
<g>
</g>
<g>
</g>
<g>
</g>
<g>
</g>
<g>
</g>
<g>
</g>
<g>
</g>
<g>
</g>
<g>
</g>
<g>
</g>
<g>
</g>
<g>
</g>
</svg>
